<?xml version="1.0" encoding="utf-8"?>
<!-- Generator: Adobe Illustrator 21.0.2, SVG Export Plug-In . SVG Version: 6.00 Build 0)  -->
<svg version="1.1" id="Capa_1" xmlns="http://www.w3.org/2000/svg" xmlns:xlink="http://www.w3.org/1999/xlink" x="0px" y="0px"
	 viewBox="0 0 832 512" style="enable-background:new 0 0 832 512;" xml:space="preserve">
<style type="text/css">
	.st0{fill:#00ADEE;}
</style>
<g>
	<path id="Behance" class="st0" d="M743.3,74.9H539.8V24.3h203.5V74.9L743.3,74.9z M404.4,282.1c13.1,20.3,19.7,45,19.7,74
		c0,30-7.4,56.9-22.4,80.6c-9.6,15.7-21.5,29-35.7,39.7c-16.1,12.4-35.1,20.8-57,25.4c-22,4.5-45.7,6.8-71.3,6.8H10V3.4h244
		c61.5,1,105.1,18.8,130.9,53.8c15.5,21.5,23.1,47.2,23.1,77.2c0,30.9-7.7,55.6-23.3,74.4c-8.7,10.5-21.5,20.1-38.5,28.7
		C371.9,246.9,391.4,261.7,404.4,282.1z M126.5,202.6h106.9c22,0,39.7-4.2,53.4-12.5c13.7-8.3,20.5-23.2,20.5-44.4
		c0-23.5-9-39.1-27.1-46.6c-15.6-5.2-35.5-7.9-59.6-7.9h-94L126.5,202.6L126.5,202.6z M317.6,348.9c0-26.2-10.7-44.4-32.1-54.1
		c-12-5.5-28.9-8.4-50.5-8.6H126.5v134.6h106.8c21.9,0,38.9-2.9,51.2-8.9C306.5,401,317.6,380,317.6,348.9z M818.8,266.7
		c2.5,16.5,3.6,40.5,3.1,71.9H558.4c1.5,36.4,14,61.8,37.8,76.4c14.4,9.1,31.8,13.6,52.2,13.6c21.5,0,39-5.4,52.5-16.6
		c7.3-5.9,13.8-14.3,19.4-24.8h96.6c-2.5,21.5-14.2,43.3-35.1,65.4c-32.4,35.2-77.8,52.8-136.1,52.8c-48.2,0-90.6-14.9-127.5-44.5
		c-36.7-29.8-55.2-78-55.2-145c0-62.8,16.6-110.8,49.8-144.3c33.4-33.5,76.4-50.2,129.5-50.2c31.5,0,59.8,5.6,85.1,16.9
		c25.2,11.3,46.1,29.1,62.5,53.6C804.8,213.4,814.3,238.3,818.8,266.7z M723.7,276.1c-1.8-25.1-10.2-44.2-25.3-57.2
		c-15-13-33.7-19.6-56.1-19.6c-24.3,0-43.1,7-56.5,20.8c-13.4,13.7-21.8,32.4-25.2,56H723.7L723.7,276.1z"/>
</g>
</svg>
