<svg id="Layer_1" data-name="Layer 1" xmlns="http://www.w3.org/2000/svg" xmlns:xlink="http://www.w3.org/1999/xlink" viewBox="0 0 220.47 126.36"><defs><style>.cls-1,.cls-10,.cls-12,.cls-14,.cls-15{fill:none;}.cls-2,.cls-6{font-size:30.08px;fill:#00adee;font-family:MrEavesXLModOT-Heavy, Mr Eaves XL Mod OT;}.cls-2{letter-spacing:0.47em;}.cls-3{letter-spacing:0.43em;}.cls-4{letter-spacing:0.44em;}.cls-5{letter-spacing:0em;}.cls-7{letter-spacing:0.44em;}.cls-8{letter-spacing:0.43em;}.cls-9{letter-spacing:0.44em;}.cls-10{stroke:#6b6c6f;stroke-width:1.41px;}.cls-11{clip-path:url(#clip-path);}.cls-12{stroke:#818385;stroke-width:1.5px;}.cls-13{fill:#f076ad;}.cls-14,.cls-15{stroke:#0083c3;}.cls-14{stroke-width:0.5px;}.cls-15{stroke-width:0.17px;}</style><clipPath id="clip-path"><rect class="cls-1" width="220.47" height="126.36"/></clipPath></defs><title>Portfolio_Logo</title><text class="cls-2" transform="translate(72.5 72.56)">K<tspan class="cls-3" x="33.18" y="0">A</tspan><tspan class="cls-4" x="65.66" y="0">N</tspan><tspan class="cls-5" x="98.78" y="0">E</tspan></text><text class="cls-6" transform="translate(72.5 106.61)"><tspan class="cls-7">P</tspan><tspan class="cls-8" x="29.72" y="0">O</tspan><tspan class="cls-9" x="64.61" y="0">U</tspan><tspan x="98.93" y="0">R</tspan></text><path class="cls-10" d="M189.08,28l-6.53,6.53M185.31,28l-6.52,6.53M181.54,28,175,34.52M177.77,28l-6.52,6.53M174,28l-6.53,6.53M170.23,28l-6.53,6.53M166.46,28l-6.52,6.53M162.69,28l-6.53,6.53M158.92,28l-6.52,6.53M155.15,28l-6.53,6.53M151.38,28l-6.53,6.53M147.61,28l-6.53,6.53M143.85,28l-6.53,6.53M140.08,28l-6.53,6.53M136.31,28l-6.53,6.53M132.54,28,126,34.52M128.77,28l-6.53,6.53M125,28l-6.53,6.53M121.23,28l-6.53,6.53M117.46,28l-6.53,6.53M113.69,28l-6.52,6.53M109.92,28l-6.53,6.53M106.15,28l-6.53,6.53"/><g class="cls-11"><line class="cls-12" x1="139.8" y1="125.61" x2="189.58" y2="125.61"/></g><polygon class="cls-13" points="0.5 0.5 0.5 78.41 71.28 0.5 0.5 0.5"/><g class="cls-11"><polyline class="cls-14" points="71.28 0.75 0.75 0.75 0.75 78.41"/><polyline class="cls-15" points="71.28 0.08 0.5 0.08 0.08 0.08 0.08 0.5 0.08 78.41"/></g></svg>