<?xml version="1.0" encoding="utf-8"?>
<!-- Generator: Adobe Illustrator 21.0.2, SVG Export Plug-In . SVG Version: 6.00 Build 0)  -->
<svg version="1.1" id="Layer_1" xmlns="http://www.w3.org/2000/svg" xmlns:xlink="http://www.w3.org/1999/xlink" x="0px" y="0px"
	 viewBox="0 0 220.5 126.4" style="enable-background:new 0 0 220.5 126.4;" xml:space="preserve">
<style type="text/css">
	.st0{fill:#00ADEE;}
	.st1{fill:none;stroke:#6B6C6F;stroke-width:1.406;}
	.st2{fill:#F076AD;}
</style>
<g>
	<path class="st0" d="M86,72.6l-6.9-8.2v8.2h-4.9v-18h4.9v8l6.3-8h5.2l-7,8.6l8.2,9.4H86z"/>
	<path class="st0" d="M113.3,54.5h4.1l7.6,18h-4.8l-1.5-3.8H112l-1.5,3.8h-4.7L113.3,54.5z M117.5,65.6l-2.2-5.7l-2.2,5.7H117.5z"/>
	<path class="st0" d="M140,54.5h3.7l8.2,10.4V54.5h4.3v18h-3.7l-8.2-10.4v10.4H140V54.5z"/>
	<path class="st0" d="M173.1,54.5h12.5v3.7H178v3h6.2v3.6H178v4h7.7v3.7h-12.5V54.5z"/>
</g>
<g>
	<path class="st0" d="M74.3,88.6H82c4.5,0,6.6,2.7,6.6,6s-2.1,6-6.6,6h-2.8v6h-4.9V88.6z M80.8,97.4c2.1,0,2.9-1.1,2.9-2.8
		s-0.9-2.8-2.9-2.8h-1.7v5.7H80.8z"/>
	<path class="st0" d="M103.2,97.6c0-5.5,4.5-9.5,10-9.5c5.5,0,10,4,10,9.5s-4.5,9.5-10,9.5C107.6,107.1,103.2,103.1,103.2,97.6z
		 M117.9,97.6c0-3.5-1.8-5.7-4.8-5.7c-3,0-4.8,2.3-4.8,5.7s1.8,5.7,4.8,5.7C116.2,103.3,117.9,101.1,117.9,97.6z"/>
	<path class="st0" d="M138.9,98.3v-9.7h4.9V98c0,3.2,1.3,4.9,3.8,4.9c2.6,0,3.9-1.7,3.9-4.9v-9.4h4.8v9.7c0,6.1-3.8,8.8-8.7,8.8
		C142.8,107.1,138.9,104.4,138.9,98.3z"/>
	<path class="st0" d="M189.5,106.6h-5.3l-4.7-6.9h-1.3v6.9h-4.9v-18h8.2c4.4,0,6.3,2.6,6.3,5.6c0,2.4-1.3,4.4-3.5,5.1L189.5,106.6z
		 M180.2,96.6c1.9,0,2.7-0.8,2.7-2.4c0-1.6-0.8-2.4-2.7-2.4h-2.1v4.8H180.2z"/>
</g>
<path class="st1" d="M189.1,28l-6.5,6.5 M185.3,28l-6.5,6.5 M181.5,28l-6.5,6.5 M177.8,28l-6.5,6.5 M174,28l-6.5,6.5 M170.2,28
	l-6.5,6.5 M166.5,28l-6.5,6.5 M162.7,28l-6.5,6.5 M158.9,28l-6.5,6.5 M155.2,28l-6.5,6.5 M151.4,28l-6.5,6.5 M147.6,28l-6.5,6.5
	 M143.8,28l-6.5,6.5 M140.1,28l-6.5,6.5 M136.3,28l-6.5,6.5 M132.5,28l-6.5,6.5 M128.8,28l-6.5,6.5 M125,28l-6.5,6.5 M121.2,28
	l-6.5,6.5 M117.5,28l-6.5,6.5 M113.7,28l-6.5,6.5 M109.9,28l-6.5,6.5 M106.1,28l-6.5,6.5"/>
<polygon class="st2" points="-0.1,0 -0.1,77.9 70.7,0 "/>
</svg>
